<?xml version="1.0" encoding="UTF-8"?>
<svg id="_图层_1" xmlns="http://www.w3.org/2000/svg" xmlns:xlink="http://www.w3.org/1999/xlink" version="1.1" viewBox="0 0 932.54 918.5">
  <!-- Generator: Adobe Illustrator 30.0.0, SVG Export Plug-In . SVG Version: 2.1.1 Build 123)  -->
  <defs>
    <style>
      .st0 {
        fill: url(#_未命名的渐变_682);
      }

      .st1 {
        fill: url(#_未命名的渐变_685);
      }

      .st2 {
        fill: url(#_未命名的渐变_686);
      }

      .st3 {
        fill: url(#_未命名的渐变_687);
      }

      .st4 {
        fill: url(#_未命名的渐变_683);
      }

      .st5 {
        fill: url(#_未命名的渐变_684);
      }

      .st6 {
        fill: url(#_未命名的渐变_681);
      }

      .st7 {
        fill: url(#_未命名的渐变_68);
      }

      .st8 {
        fill: url(#_未命名的渐变_79);
      }

      .st9 {
        fill: url(#_未命名的渐变_76);
      }
    </style>
    <linearGradient id="_未命名的渐变_79" data-name="未命名的渐变 79" x1="377.1" y1="106.3" x2="785.59" y2="532.42" gradientUnits="userSpaceOnUse">
      <stop offset="0" stop-color="#eebfff"/>
      <stop offset=".14" stop-color="#cd82ff"/>
      <stop offset=".26" stop-color="#cc7fff"/>
      <stop offset=".39" stop-color="#ab9fff"/>
      <stop offset=".51" stop-color="#7fa0ff"/>
      <stop offset=".69" stop-color="#a3cdff"/>
      <stop offset=".83" stop-color="#7fd9ff"/>
      <stop offset="1" stop-color="#deff9f"/>
    </linearGradient>
    <linearGradient id="_未命名的渐变_68" data-name="未命名的渐变 68" x1="207.68" y1="280.05" x2="622.05" y2="712.05" gradientUnits="userSpaceOnUse">
      <stop offset="0" stop-color="#eebfff"/>
      <stop offset="0" stop-color="#ecbbff"/>
      <stop offset=".14" stop-color="#cd82ff"/>
      <stop offset=".26" stop-color="#cc7fff"/>
      <stop offset=".39" stop-color="#ab9fff"/>
      <stop offset=".51" stop-color="#7fa0ff"/>
      <stop offset=".69" stop-color="#a3cdff"/>
      <stop offset=".83" stop-color="#7fd9ff"/>
      <stop offset="1" stop-color="#deff9f"/>
    </linearGradient>
    <linearGradient id="_未命名的渐变_681" data-name="未命名的渐变 68" x1="193.02" y1="303.16" x2="627.96" y2="708.71" xlink:href="#_未命名的渐变_68"/>
    <linearGradient id="_未命名的渐变_682" data-name="未命名的渐变 68" x1="104.68" y1="392.19" x2="507.29" y2="815.37" xlink:href="#_未命名的渐变_68"/>
    <linearGradient id="_未命名的渐变_683" data-name="未命名的渐变 68" x1="108.65" y1="390.91" x2="517.14" y2="819.97" xlink:href="#_未命名的渐变_68"/>
    <linearGradient id="_未命名的渐变_684" data-name="未命名的渐变 68" x1="162.89" y1="354.02" x2="544.85" y2="735.98" xlink:href="#_未命名的渐变_68"/>
    <linearGradient id="_未命名的渐变_76" data-name="未命名的渐变 76" x1="165.75" y1="343.49" x2="562.49" y2="778.43" gradientUnits="userSpaceOnUse">
      <stop offset="0" stop-color="#eebfff"/>
      <stop offset="0" stop-color="#ecbbff"/>
      <stop offset=".14" stop-color="#cd82ff"/>
      <stop offset=".26" stop-color="#cc7fff"/>
      <stop offset=".39" stop-color="#ab9fff"/>
      <stop offset=".51" stop-color="#7fa0ff"/>
      <stop offset=".69" stop-color="#a3cdff"/>
      <stop offset=".83" stop-color="#7fd9ff"/>
      <stop offset="1" stop-color="#deff9f"/>
    </linearGradient>
    <linearGradient id="_未命名的渐变_685" data-name="未命名的渐变 68" x1="323.77" y1="166.7" x2="726.39" y2="578.13" xlink:href="#_未命名的渐变_68"/>
    <linearGradient id="_未命名的渐变_686" data-name="未命名的渐变 68" x1="432.08" y1="52.43" x2="852.32" y2="478.55" xlink:href="#_未命名的渐变_68"/>
    <linearGradient id="_未命名的渐变_687" data-name="未命名的渐变 68" x1="425.92" y1="64.54" x2="852.04" y2="470.09" xlink:href="#_未命名的渐变_68"/>
  </defs>
  <path class="st8" d="M436.19,369.31l-119.28-120.14c-21.87-22.03-21.74-57.62.29-79.49l120.14-119.28c22.03-21.87,57.62-21.74,79.49.29l119.28,120.14c21.87,22.03,21.74,57.62-.29,79.49l-120.14,119.28c-22.03,21.87-57.62,21.74-79.49-.29h0Z"/>
  <path class="st7" d="M542.61,584.5c13.63-13.53,13.71-35.55.18-49.19l-42.07-42.37c-13.53-13.63-35.55-13.71-49.19-.18l-42.37,42.07c-13.63,13.53-13.71,35.55-.18,49.19l.34.34,17.35,17.47,24.39,24.56c13.53,13.63,35.55,13.71,49.19.18l42.37-42.07h-.01Z"/>
  <path class="st6" d="M649,691.6c13.82-13.72,13.9-36.04.18-49.86l-41.4-41.7c-13.72-13.82-36.04-13.9-49.86-.18l-41.7,41.4c-13.82,13.72-13.9,36.04-.18,49.86h0l17.35,17.47,24.05,24.22c13.72,13.82,36.04,13.9,49.86.18l41.7-41.4h0Z"/>
  <path class="st0" d="M433,692.68c13.82-13.72,13.9-36.04.18-49.86l-41.4-41.7c-13.72-13.82-36.04-13.9-49.86-.18l-41.7,41.4c-13.82,13.72-13.9,36.04-.18,49.86h0l17.35,17.47,24.05,24.22c13.72,13.82,36.04,13.9,49.86.18l41.7-41.4h0Z"/>
  <path class="st4" d="M541,800.47c13.82-13.72,13.9-36.04.18-49.86l-41.4-41.7c-13.72-13.82-36.04-13.9-49.86-.18l-41.7,41.4c-13.82,13.72-13.9,36.04-.18,49.86h0l17.35,17.47,24.05,24.22c13.72,13.82,36.04,13.9,49.86.18l41.7-41.4h0Z"/>
  <path class="st5" d="M298.31,290.3l-16.05-16.17c-18.82-18.96-49.44-19.07-68.4-.25l-131.27,130.33c-18.96,18.82-19.07,49.44-.25,68.4l16.05,16.17c18.82,18.96,49.44,19.07,68.4.25l131.27-130.33c18.96-18.82,19.07-49.44.25-68.4h0Z"/>
  <path class="st9" d="M410.95,402.95l-11.97-12.06c-19.95-20.09-52.4-20.21-72.49-.26l-127.16,126.25c-20.09,19.95-20.21,52.4-.26,72.49l11.97,12.06c19.95,20.09,52.4,20.21,72.49.26l127.16-126.25c20.09-19.95,20.21-52.4.26-72.49h0Z"/>
  <path class="st1" d="M534.39,466.58l130.52,131.46c18.77,18.9,49.3,19.01,68.2.24l14.63-14.53c18.9-18.77,19.01-49.3.24-68.2l-130.52-131.46c-18.77-18.9-49.3-19.01-68.2-.24l-14.63,14.53c-18.9,18.77-19.01,49.3-.24,68.2h0Z"/>
  <path class="st2" d="M876,460.41c13.82-13.72,13.9-36.04.18-49.86l-41.4-41.7c-13.72-13.82-36.04-13.9-49.86-.18l-41.7,41.4c-13.82,13.72-13.9,36.04-.18,49.86h0l17.35,17.47,24.05,24.22c13.72,13.82,36.04,13.9,49.86.18l41.7-41.4h0Z"/>
  <path class="st3" d="M768,352.1c13.82-13.72,13.9-36.04.18-49.86l-41.4-41.7c-13.72-13.82-36.04-13.9-49.86-.18l-41.7,41.4c-13.82,13.72-13.9,36.04-.18,49.86h0l17.35,17.47,24.05,24.22c13.72,13.82,36.04,13.9,49.86.18l41.7-41.4h0Z"/>
</svg>